<svg id="Layer_1" data-name="Layer 1" xmlns="http://www.w3.org/2000/svg" viewBox="0 0 176 176"><defs><style>.cls-1{fill:#b1b2b9;}</style></defs><title>Icono_Catalogo [Convertido]</title><path class="cls-1" d="M176,122a38,38,0,0,1-58.18,32.18L96,176,84,164l21.82-21.82A38,38,0,1,1,176,122Zm-16,0a22,22,0,1,0-22,22A22,22,0,0,0,160,122ZM87.85,143.86C85,141.15,80.12,136,72,136H16V12H72a15.74,15.74,0,0,1,13.64,7.09L88,22.59l2.37-3.48A15.73,15.73,0,0,1,104,12h56V77.11a50.34,50.34,0,0,1,16,12.45V12h-8V0H104A22.21,22.21,0,0,0,88,6.35,22.21,22.21,0,0,0,72,0H8V12H0V148H60c6.77,0,12.61,4.31,16.2,7.76ZM100,52h44V40H100Zm0,28h10.92A49.73,49.73,0,0,1,138,72a51.68,51.68,0,0,1,6,.37V68H100ZM76,40H32V52H76ZM32,108H76V96H32ZM76,68H32V80H76Z" transform="translate(0 0)"/></svg>