<svg id="Layer_1" data-name="Layer 1" xmlns="http://www.w3.org/2000/svg" viewBox="0 0 330.74 376.98"><defs><style>.cls-1,.cls-5{fill:#fff;}.cls-2{fill:#727176;}.cls-3,.cls-4{fill:none;stroke:#fff;}.cls-3{stroke-miterlimit:10;stroke-width:11px;}.cls-4,.cls-5{stroke-linecap:round;stroke-linejoin:round;}.cls-4{stroke-width:8px;}.cls-5{stroke:#727176;stroke-width:18.79px;}</style></defs><title>Icono_Requerimiento [Convertido]</title><rect class="cls-1" x="33" y="81.41" width="198" height="243"/><rect class="cls-2" y="33.41" width="259" height="323" rx="19.97" ry="19.97"/><path class="cls-3" d="M380.84,182.19c-.4-1.56-.81-3.16-1.3-4.73a15.54,15.54,0,0,0-4.63-7.65,15.1,15.1,0,0,0-1.86-1.3c-3.27-1.95-7.34-2.84-11.24-3.46-1.56-.24-3.09-.45-4.52-.65h0a29.11,29.11,0,0,1-5.94-1.52c-8.93-3.3-16.14-10.91-16.33-21a14.65,14.65,0,0,0-1.17-5.24,10.32,10.32,0,0,0-4.43-5.27c-2.7-1.45-6.08-.91-8.8-2.37-2.29-1.22-3.68-4.29-6.43-12.26-2.42-7-9.41-7.61-11.11-7.66h-.77c-1.72,0-8.7.68-11.11,7.66-2.77,8-4.15,11-6.44,12.26-2.74,1.46-6.11.92-8.81,2.37a10.38,10.38,0,0,0-4.44,5.27,14.63,14.63,0,0,0-1.16,5.24c-.23,12.24-10.81,20.86-22.27,22.51h0c-1.44.2-3,.41-4.54.65a47.69,47.69,0,0,0-6.79,1.55,21.47,21.47,0,0,0-4.44,1.91,14.27,14.27,0,0,0-1.85,1.3,15.2,15.2,0,0,0-4.54,7.31c-.54,1.67-1,3.4-1.41,5.07H380.84Zm-78.16-65.13a6.29,6.29,0,1,1-6.29,6.28,6.28,6.28,0,0,1,6.29-6.28" transform="translate(-172.73 -103.59)"/><path class="cls-2" d="M380.84,182.19c-.4-1.56-.81-3.16-1.3-4.73a15.54,15.54,0,0,0-4.63-7.65,15.1,15.1,0,0,0-1.86-1.3c-3.27-1.95-7.34-2.84-11.24-3.46-1.56-.24-3.09-.45-4.52-.65h0a29.11,29.11,0,0,1-5.94-1.52c-8.93-3.3-16.14-10.91-16.33-21a14.65,14.65,0,0,0-1.17-5.24,10.32,10.32,0,0,0-4.43-5.27c-2.7-1.45-6.08-.91-8.8-2.37-2.29-1.22-3.68-4.29-6.43-12.26-2.42-7-9.41-7.61-11.11-7.66h-.77c-1.72,0-8.7.68-11.11,7.66-2.77,8-4.15,11-6.44,12.26-2.74,1.46-6.11.92-8.81,2.37a10.38,10.38,0,0,0-4.44,5.27,14.63,14.63,0,0,0-1.16,5.24c-.23,12.24-10.81,20.86-22.27,22.51h0c-1.44.2-3,.41-4.54.65a47.69,47.69,0,0,0-6.79,1.55,21.47,21.47,0,0,0-4.44,1.91,14.27,14.27,0,0,0-1.85,1.3,15.2,15.2,0,0,0-4.54,7.31c-.54,1.67-1,3.4-1.41,5.07H380.84Zm-78.16-65.13a6.29,6.29,0,1,1-6.29,6.28,6.28,6.28,0,0,1,6.29-6.28" transform="translate(-172.73 -103.59)"/><polyline class="cls-4" points="46.95 116.49 55.34 128.87 86.87 102.05"/><polyline class="cls-4" points="46.95 188.8 55.34 201.17 86.87 174.35"/><polyline class="cls-4" points="46.95 261.1 55.34 273.47 86.87 246.65"/><line class="cls-4" x1="103.39" y1="112.55" x2="200.24" y2="112.55"/><line class="cls-4" x1="103.39" y1="135.26" x2="200.24" y2="135.26"/><line class="cls-4" x1="103.39" y1="183.27" x2="200.24" y2="183.27"/><line class="cls-4" x1="103.39" y1="205.98" x2="200.24" y2="205.98"/><line class="cls-4" x1="103.39" y1="253.99" x2="200.24" y2="253.99"/><line class="cls-4" x1="103.39" y1="276.71" x2="200.24" y2="276.71"/><circle class="cls-5" cx="399.96" cy="377.06" r="94.11" transform="translate(-322.2 289.67) rotate(-45)"/><polyline class="cls-5" points="169.43 273.19 203.19 315.72 283.65 245.66"/></svg>