<svg id="Layer_1" data-name="Layer 1" xmlns="http://www.w3.org/2000/svg" viewBox="0 0 2799 1802"><defs><style>.cls-1{fill:#fff;}.cls-2{fill:#b0b1b7;}</style></defs><title>Icono_Candidato [Convertido]</title><rect class="cls-1" y="1" width="2799" height="1800"/><polygon class="cls-2" points="1688.06 374.03 1649.27 401.29 1690.02 454.12 1705.39 474.05 1725.05 458.04 1882.87 329.05 1851.41 294.11 1713.44 407.09 1688.06 374.03"/><path class="cls-2" d="M1630.87,531.35h149.41a49,49,0,0,0,34-13.46,45,45,0,0,0,13.94-32.2V447.35h-48.26v38h-148.7V343.57h120.46v-46H1630.87a49.52,49.52,0,0,0-33.78,13.29V311a44.45,44.45,0,0,0-14.12,32.2V485.69a43.87,43.87,0,0,0,14.12,32.2A48.88,48.88,0,0,0,1630.87,531.35Z" transform="translate(0 2)"/><ellipse class="cls-2" cx="1171.9" cy="375.22" rx="132.26" ry="126.09"/><path class="cls-2" d="M1274.49,510.22H1069.31c-94.19,0-171,73.44-171,163.24V988c0,25.9,22.16,47,49.33,47s49.51-21.13,49.51-47V729c0-9.54,8-17.21,17.87-17.21,10,0,18,7.67,18,17.21v732.55c0,30.16,25.91,54.69,57.37,54.69,31.63,0,57.55-24.53,57.55-54.69V1044.42h47.9v417.14c0,30.16,25.91,54.69,57.37,54.69,31.63,0,57.55-24.53,57.55-54.69V729c0-9.54,8-17.21,17.87-17.21,10,0,18,7.67,18,17.21V988c0,25.9,22.16,47,49.33,47,27.35,0,49.51-21.13,49.51-47V673.46C1445.53,583.66,1368.5,510.22,1274.49,510.22Z" transform="translate(0 2)"/><path class="cls-2" d="M1814.06,1247.71a49.2,49.2,0,0,0-33.78-13.29H1630.87a49.52,49.52,0,0,0-33.78,13.29v.17a44.16,44.16,0,0,0-14.12,32.2v142.46a44.46,44.46,0,0,0,14.12,32.2,48.56,48.56,0,0,0,33.78,13.46h149.41a48.25,48.25,0,0,0,33.78-13.46h.18a45,45,0,0,0,13.94-32.2V1280.08a44.69,44.69,0,0,0-13.94-32.2Zm-34.14,174.48h-148.7V1280.42h148.7Z" transform="translate(0 2)"/><path class="cls-2" d="M1779.92,797.69h-148.7v-142h120.46v-46H1630.87a48.88,48.88,0,0,0-33.78,13.46v.17a43.87,43.87,0,0,0-14.12,32.2V797.86a44.55,44.55,0,0,0,14.12,32.37,49.66,49.66,0,0,0,33.78,13.46h149.41a49.79,49.79,0,0,0,34-13.46,45.09,45.09,0,0,0,13.94-32.37V759.52h-48.26Z" transform="translate(0 2)"/><polygon class="cls-2" points="1713.44 719.26 1688.06 686.37 1649.27 713.46 1690.02 766.46 1705.39 786.39 1725.05 770.21 1882.87 641.22 1851.41 606.45 1713.44 719.26"/><path class="cls-2" d="M1814.06,935.54a48.58,48.58,0,0,0-33.78-13.46H1630.87a48.88,48.88,0,0,0-33.78,13.46,44.45,44.45,0,0,0-14.12,32.2V1110.2a44.46,44.46,0,0,0,14.12,32.2v.17a49.52,49.52,0,0,0,33.78,13.29h149.41a49.2,49.2,0,0,0,33.78-13.29l.18-.17a45,45,0,0,0,13.94-32.2V967.74a45,45,0,0,0-13.94-32.2Zm-34.14,174.32h-148.7V968.08h148.7Z" transform="translate(0 2)"/></svg>